<svg width="200" height="200" viewBox="0 0 200 200" fill="none" xmlns="http://www.w3.org/2000/svg">
<mask id="mask0_506_5922" style="mask-type:luminance" maskUnits="userSpaceOnUse" x="69" y="78" width="62" height="44">
<path d="M69.9634 78.6892H130.127V121.282H69.9634V78.6892Z" fill="white"/>
</mask>
<g mask="url(#mask0_506_5922)">
<path d="M128.187 118.108C123.673 113.99 113.635 105.004 106.649 99.9884C113.627 94.973 123.671 85.9809 128.187 81.8624V118.108ZM73.398 119.344C80.082 113.167 89.1484 105.26 94.9422 101.142C97.1712 102.615 98.9815 103.536 100.037 103.547C100.997 103.547 102.78 102.627 104.989 101.146C110.589 105.179 119.558 112.874 126.665 119.344H73.398ZM71.904 81.8865C76.3639 86.0166 86.2433 94.9788 93.2659 99.9855C86.2433 104.99 76.3639 113.953 71.904 118.083V81.8865ZM126.665 80.6259C116.526 89.8563 102.46 101.612 100.037 101.612C97.6139 101.611 82.8453 89.3566 73.398 80.6259H126.665ZM129.157 78.6892H70.9337C70.6154 78.6873 69.9605 78.9506 69.9634 79.6576V120.312C69.9605 120.711 70.2971 121.278 70.9337 121.281H129.157C129.943 121.303 130.133 120.753 130.127 120.312V79.6576C130.133 79.3779 129.968 78.6815 129.157 78.6892Z" fill="black"/>
</g>
</svg>
