<svg width="200" height="200" viewBox="0 0 200 200" fill="none" xmlns="http://www.w3.org/2000/svg">
<path d="M134.692 118.375C134.692 117.745 134.658 117.124 134.593 116.511C134.733 116.259 134.726 115.939 134.544 115.693C134.527 115.667 134.499 115.656 134.479 115.634C133.998 112.551 132.717 109.734 130.859 107.393C130.855 107.386 130.855 107.378 130.85 107.372C130.838 107.354 130.821 107.346 130.808 107.329C127.568 103.286 122.597 100.691 117.029 100.691C116.892 100.691 116.758 100.697 116.622 100.701C116.577 100.693 116.532 100.703 116.486 100.704C109.621 100.913 103.732 105.059 100.997 110.962C100.994 110.97 100.991 110.979 100.986 110.987C99.948 113.237 99.3645 115.738 99.3645 118.375C99.3645 121.749 100.315 124.904 101.957 127.589C101.96 127.595 101.959 127.6 101.963 127.605C101.976 127.631 101.996 127.65 102.012 127.674C105.13 132.702 110.694 136.06 117.028 136.06C125.044 136.06 131.826 130.683 133.976 123.344C133.978 123.336 133.982 123.329 133.984 123.32C134.442 121.75 134.692 120.092 134.692 118.375ZM130.034 108.841C131.534 110.885 132.559 113.29 132.962 115.904C128.849 118.882 124.919 120.983 121.195 122.194C120.553 116.163 127.872 110.401 130.034 108.841ZM133.135 117.655C133.145 117.895 133.171 118.132 133.171 118.375C133.171 119.872 132.951 121.317 132.569 122.693C129.488 124.667 126.779 125.421 124.514 124.918C123.287 124.645 122.436 124.052 121.91 123.56C125.494 122.361 129.242 120.394 133.135 117.655ZM129.073 107.651C126.59 109.436 118.74 115.677 119.718 122.628C117.026 123.343 114.446 123.583 111.994 123.336C110.805 113.793 115.844 104.173 116.943 102.217C116.972 102.217 117 102.213 117.029 102.213C121.818 102.213 126.115 104.324 129.073 107.651ZM115.154 102.331C113.492 105.52 109.505 114.253 110.438 123.106C109.04 122.84 107.793 122.429 106.702 121.939C106.785 117.542 103.565 112.685 102.55 111.273C104.919 106.453 109.606 102.977 115.154 102.331ZM100.965 119.912C101.887 120.804 103.257 121.91 105.097 122.864C105.082 122.944 105.08 123.027 105.063 123.105C104.782 124.401 104.073 125.416 102.912 126.194C101.86 124.3 101.179 122.174 100.965 119.912ZM100.924 117.625C101 115.989 101.317 114.416 101.845 112.941C102.976 114.658 104.935 118.046 105.171 121.155C102.793 119.779 101.378 118.189 100.924 117.625ZM103.712 127.493C105.197 126.51 106.138 125.178 106.521 123.526C107.731 124.026 109.092 124.444 110.628 124.696C110.638 124.698 110.647 124.698 110.657 124.7C111.248 128.075 112.625 131.416 115.183 134.423C110.428 133.878 106.294 131.261 103.712 127.493ZM117.343 134.522C114.472 131.611 112.926 128.286 112.249 124.893C112.795 124.937 113.346 124.959 113.903 124.959C115.966 124.959 118.098 124.651 120.294 124.052C120.853 124.73 122.086 125.924 124.143 126.396C124.722 126.528 125.32 126.594 125.939 126.594C127.729 126.594 129.682 126.031 131.774 124.926C129.297 130.489 123.779 134.396 117.343 134.522Z" fill="black"/>
<mask id="mask0_506_5919" style="mask-type:luminance" maskUnits="userSpaceOnUse" x="65" y="94" width="31" height="45">
<path d="M65.1853 94.8148H95.3088V138.564H65.1853V94.8148Z" fill="white"/>
</mask>
<g mask="url(#mask0_506_5919)">
<path d="M80.4545 95.0656C80.44 95.0617 80.4274 95.0656 80.4139 95.0627C80.3638 95.0521 80.3136 95.053 80.2625 95.053C80.2066 95.053 80.1516 95.0521 80.0995 95.0636C80.086 95.0665 80.0735 95.0627 80.0609 95.0656C79.9143 95.1051 65.3619 99.212 65.3831 116.809C65.4053 133.525 79.8738 138.491 80.0195 138.539C80.0204 138.539 80.0214 138.539 80.0214 138.539C80.0976 138.563 80.1767 138.576 80.2577 138.576C80.3387 138.576 80.4178 138.563 80.494 138.539C80.495 138.539 80.495 138.539 80.4959 138.539C80.6416 138.491 95.114 133.523 95.1333 116.809C95.1545 99.212 80.602 95.1051 80.4545 95.0656ZM80.167 103.857C79.7465 103.857 79.407 104.198 79.407 104.619V104.959L69.8757 104.96C70.5287 103.861 71.2521 102.899 72.0054 102.054C72.0391 102.059 72.069 102.075 72.1038 102.075L87.8918 102.076C88.075 102.076 88.238 102.001 88.3692 101.892C89.1736 102.775 89.9462 103.791 90.6416 104.959L80.928 104.959V104.619C80.9271 104.198 80.5876 103.857 80.167 103.857ZM80.2577 96.5943C81.064 96.8422 84.0646 97.8925 87.0218 100.553L73.4936 100.552C76.4527 97.8925 79.4523 96.8422 80.2577 96.5943ZM69.0646 106.482H79.408V108.385L74.5266 108.387C74.1061 108.387 73.7656 108.729 73.7656 109.148C73.7656 109.569 74.107 109.91 74.5266 109.91L79.408 109.908L79.406 115.956L74.5256 115.955C74.1061 115.955 73.7656 116.296 73.7656 116.716C73.7656 117.136 74.1051 117.477 74.5256 117.477L79.406 117.478L79.4051 123.523H74.5237C74.1041 123.523 73.7637 123.864 73.7637 124.284C73.7637 124.705 74.1032 125.045 74.5237 125.045L79.4051 125.046V127.134H69.3115C67.8879 124.402 66.9099 121.005 66.9051 116.808C66.8993 112.569 67.7683 109.184 69.0646 106.482ZM80.1661 129.578C80.5866 129.578 80.9261 129.237 80.9261 128.817V128.657H90.3879C89.706 129.739 88.9614 130.699 88.1898 131.542H72.6275C72.5619 131.542 72.5031 131.564 72.4413 131.58C71.6514 130.726 70.8866 129.753 70.1882 128.656H79.4051V128.816C79.4051 129.237 79.7455 129.578 80.1661 129.578ZM80.2625 137.006C79.4726 136.702 76.7508 135.537 73.9633 133.065H86.6408C83.8543 135.54 81.1045 136.692 80.2625 137.006ZM91.2531 127.135H80.9261V125.047L85.8084 125.048C86.229 125.048 86.5694 124.707 86.5694 124.286C86.5694 123.867 86.229 123.525 85.8084 123.525L80.9261 123.524L80.9271 117.479L85.8084 117.48C86.229 117.48 86.5694 117.138 86.5694 116.719C86.5694 116.298 86.229 115.957 85.8084 115.957L80.9271 115.956V109.908L85.8075 109.906C86.228 109.906 86.5675 109.566 86.5675 109.145C86.5675 108.725 86.227 108.384 85.8075 108.384L80.9271 108.385V106.482L91.4527 106.481C92.7481 109.183 93.618 112.568 93.6122 116.807C93.6074 121.015 92.6516 124.409 91.2531 127.135Z" fill="black"/>
</g>
<mask id="mask1_506_5919" style="mask-type:luminance" maskUnits="userSpaceOnUse" x="60" y="61" width="80" height="37">
<path d="M60 61.5268H140V97.037H60V61.5268Z" fill="white"/>
</mask>
<g mask="url(#mask1_506_5919)">
<path d="M118.49 61.5152C111.614 61.5152 105.491 64.2303 101.582 68.4355C101.573 68.4423 101.563 68.4442 101.554 68.451C101.471 68.5233 93.1878 75.6394 85.2065 75.9789C84.9307 75.597 84.4841 75.3462 83.9787 75.3462H61.7449C60.9058 75.3462 60.2239 76.0291 60.2239 76.8682V81.6628C60.2239 82.5019 60.9058 83.1848 61.7449 83.1848H83.9777C84.4841 83.1848 84.9307 82.934 85.2065 82.552C92.912 82.878 100.915 89.538 101.516 90.0472C102.103 90.6828 102.742 91.2914 103.438 91.8653C107.465 95.1861 112.811 97.0148 118.491 97.0148C130.267 97.0148 139.851 89.0538 139.853 79.266C139.851 69.4772 130.267 61.5152 118.49 61.5152ZM79.9239 81.5962H77.4393V76.9338L79.9239 76.9357V81.5962ZM61.7449 76.8682H75.9193V81.6628H61.7449V76.8682ZM83.9758 81.6628H81.4449V76.8682H83.9777L83.9758 81.6628ZM85.4988 81.0426V77.4865C90.5422 77.2 95.5277 74.5457 98.7954 72.389C97.722 74.5052 97.1278 76.8277 97.1278 79.265C97.1278 81.6599 97.693 83.9805 98.7713 86.1226C95.5026 83.9699 90.5306 81.3281 85.4988 81.0426ZM118.491 95.4928C113.164 95.4928 108.161 93.7876 104.405 90.6905C100.692 87.6282 98.6479 83.5715 98.6488 79.265C98.6488 70.3173 107.549 63.0372 118.491 63.0372C129.431 63.0372 138.332 70.3173 138.333 79.266C138.331 88.2127 129.43 95.4928 118.491 95.4928Z" fill="black"/>
</g>
<path d="M135.366 78.504H131.829L131.828 75.6973H133.492C133.912 75.6973 134.252 75.3569 134.252 74.9363C134.252 74.5158 133.913 74.1753 133.492 74.1753H131.474C131.355 74.0972 131.22 74.0403 131.068 74.0403C130.914 74.0403 130.78 74.0972 130.661 74.1753H127.766V71.4988H130.217C130.637 71.4988 130.977 71.1574 130.977 70.7378C130.977 70.3173 130.637 69.9759 130.217 69.9759H127.766V69.0249C127.766 68.6044 127.426 68.2639 127.006 68.2639C126.586 68.2639 126.245 68.6044 126.245 69.0249V69.9759H123.574L123.575 67.4325H123.598C124.018 67.4325 124.359 67.092 124.359 66.6715C124.359 66.2519 124.019 65.9105 123.598 65.9105H123.524C123.419 65.6163 123.145 65.4032 122.815 65.4032C122.484 65.4032 122.211 65.6163 122.105 65.9105H119.249V64.5303C119.249 64.1098 118.909 63.7693 118.488 63.7693C118.068 63.7693 117.728 64.1098 117.728 64.5303V65.9105H114.874C114.767 65.6163 114.494 65.4032 114.164 65.4032C113.834 65.4032 113.56 65.6163 113.455 65.9095H113.378C112.958 65.9095 112.618 66.251 112.618 66.6705C112.618 67.091 112.957 67.4325 113.378 67.4325H113.403V69.9768H110.729V69.0258C110.729 68.6053 110.389 68.2639 109.969 68.2639C109.548 68.2639 109.209 68.6053 109.209 69.0258V69.9768H106.758C106.338 69.9768 105.998 70.3183 105.998 70.7378C105.998 71.1584 106.338 71.4998 106.758 71.4998H109.209V74.1753H106.312C106.193 74.0982 106.06 74.0422 105.907 74.0422C105.755 74.0422 105.622 74.0982 105.503 74.1753H103.485C103.065 74.1753 102.724 74.5158 102.724 74.9363C102.724 75.3569 103.064 75.6973 103.485 75.6973H105.148V78.505H101.61C101.189 78.505 100.85 78.8464 100.85 79.266C100.85 79.6865 101.189 80.028 101.61 80.028H105.148V82.8347H103.485C103.064 82.8347 102.724 83.1761 102.724 83.5966C102.724 84.0162 103.064 84.3576 103.485 84.3576H105.505C105.624 84.4338 105.756 84.4888 105.907 84.4888C106.059 84.4888 106.191 84.4338 106.31 84.3576H109.21V87.0332H106.757C106.337 87.0332 105.997 87.3746 105.997 87.7942C105.997 88.2147 106.337 88.5561 106.757 88.5561H109.21V89.5071C109.21 89.9277 109.55 90.2681 109.97 90.2681C110.391 90.2681 110.73 89.9277 110.73 89.5071V88.5561H113.402V91.1005H113.377C112.957 91.1005 112.617 91.4419 112.617 91.8615C112.617 92.282 112.956 92.6235 113.377 92.6235H113.455C113.561 92.9157 113.834 93.1269 114.163 93.1269C114.493 93.1269 114.766 92.9157 114.872 92.6235H117.728V94.0027C117.728 94.4223 118.067 94.7637 118.488 94.7637C118.908 94.7637 119.249 94.4223 119.249 94.0027V92.6235H122.103C122.209 92.9157 122.482 93.126 122.811 93.126C123.139 93.126 123.413 92.9157 123.519 92.6235H123.598C124.018 92.6235 124.359 92.282 124.359 91.8615C124.359 91.4419 124.019 91.1005 123.598 91.1005H123.572V88.5552H126.247V89.5052C126.247 89.9248 126.587 90.2662 127.007 90.2662C127.428 90.2662 127.768 89.9248 127.768 89.5052V88.5552H130.217C130.637 88.5552 130.977 88.2137 130.977 87.7942C130.977 87.3736 130.637 87.0322 130.217 87.0322H127.768V84.3567H130.665C130.784 84.4338 130.917 84.4898 131.069 84.4898C131.221 84.4898 131.355 84.4338 131.474 84.3567H133.492C133.913 84.3567 134.252 84.0152 134.252 83.5957C134.252 83.1752 133.913 82.8347 133.492 82.8347H131.829L131.828 80.027H135.365C135.786 80.027 136.125 79.6856 136.125 79.266C136.125 78.8455 135.787 78.504 135.366 78.504ZM130.307 75.6983L130.308 78.504H127.767V75.6983H130.307ZM119.249 74.1753V71.4988H122.053V74.1753H119.249ZM122.053 75.6973V78.504H119.249V75.6973H122.053ZM117.729 74.1753H114.925V71.4988H117.729V74.1753ZM117.729 75.6973V78.504H114.925V75.6973H117.729ZM113.405 78.504H110.732V75.6973H113.405V78.504ZM113.405 80.026V82.8337H110.732V80.026H113.405ZM114.925 80.026H117.729V82.8337H114.925V80.026ZM117.729 84.3557V87.0312H114.925V84.3557H117.729ZM119.249 84.3557H122.053V87.0312H119.249V84.3557ZM119.249 82.8337V80.026H122.053V82.8337H119.249ZM123.573 80.026H126.246V82.8337H123.572L123.573 80.026ZM123.573 78.504L123.574 75.6973H126.246V78.504H123.573ZM126.245 71.4988V74.1753H123.574V71.4988H126.245ZM122.054 67.4325L122.053 69.9759H119.249V67.4325H122.054ZM114.925 67.4325H117.729V69.9759H114.925V67.4325ZM110.731 71.4988H113.405V74.1744H110.731V71.4988ZM106.67 75.6973H109.212V78.504H106.67V75.6973ZM106.67 82.8337V80.026H109.212V82.8337H106.67ZM110.733 87.0312V84.3547H113.405V87.0312H110.733ZM114.925 91.0986V88.5532H117.729V91.0986H114.925ZM122.051 91.0986H119.249V88.5542H122.052L122.051 91.0986ZM126.247 87.0312H123.572V84.3547H126.247V87.0312ZM130.309 82.8337H127.767V80.026H130.308L130.309 82.8337Z" fill="black"/>
</svg>
