<svg width="200" height="200" viewBox="0 0 200 200" fill="none" xmlns="http://www.w3.org/2000/svg">
<mask id="mask0_506_5915" style="mask-type:luminance" maskUnits="userSpaceOnUse" x="70" y="85" width="38" height="47">
<path d="M70.6172 85.9259H107.16V131.737H70.6172V85.9259Z" fill="white"/>
</mask>
<g mask="url(#mask0_506_5915)">
<path d="M106.229 86.1343L83.2995 92.7112C83.0295 92.7894 82.8443 93.0363 82.8443 93.3169V120.964C81.4052 120.559 79.7029 120.471 77.9089 120.79C75.8053 121.163 73.9139 122.047 72.5819 123.277C71.1747 124.578 70.5459 126.116 70.8111 127.608C71.0754 129.101 72.1961 130.328 73.966 131.065C75.0684 131.524 76.3464 131.758 77.6919 131.758C78.3892 131.758 79.1059 131.695 79.8244 131.567C81.928 131.194 83.8194 130.311 85.1514 129.08C86.3946 127.93 87.0283 126.596 86.9762 125.272C86.9762 125.27 86.9772 125.268 86.9772 125.266V99.4936L103.308 94.6673V114.624C101.729 114.089 99.8553 113.973 97.961 114.309C95.8574 114.683 93.966 115.565 92.634 116.796C91.2268 118.097 90.598 119.634 90.8632 121.128C91.3117 123.653 94.1493 125.282 97.7054 125.282C98.4056 125.282 99.1338 125.218 99.8765 125.087C101.98 124.714 103.871 123.83 105.203 122.599C106.528 121.375 107.153 119.942 107.001 118.534C107.015 118.483 107.033 118.434 107.033 118.379V86.739C107.033 86.5413 106.941 86.3551 106.782 86.2365C106.624 86.1188 106.42 86.0793 106.229 86.1343ZM84.2949 128.156C83.1385 129.226 81.4728 129.997 79.6035 130.329C77.7353 130.661 75.9047 130.509 74.4502 129.904C73.0902 129.337 72.2376 128.444 72.0505 127.388C71.8634 126.333 72.3553 125.202 73.4365 124.202C74.5929 123.133 76.2586 122.361 78.1279 122.029C78.7635 121.916 79.3904 121.863 79.998 121.863C82.9205 121.863 85.3501 123.107 85.6809 124.969C85.869 126.025 85.3771 127.157 84.2949 128.156ZM86.168 98.4201C85.9008 98.4983 85.7176 98.7452 85.7176 99.0239V122.541C85.2739 122.105 84.7309 121.731 84.1039 121.433V93.7915L105.773 87.5752V116.074C105.433 115.741 105.032 115.44 104.567 115.179V93.8243C104.567 93.6256 104.473 93.4385 104.314 93.3198C104.155 93.2002 103.949 93.1646 103.759 93.2205L86.168 98.4201ZM104.347 121.675C103.191 122.744 101.525 123.516 99.6556 123.847C95.9625 124.501 92.5029 123.157 92.1026 120.908C91.9155 119.852 92.4074 118.721 93.4886 117.721C94.645 116.652 96.3117 115.881 98.1809 115.549C98.829 115.433 99.4733 115.377 100.099 115.377C101.275 115.377 102.385 115.578 103.334 115.973C104.693 116.539 105.546 117.432 105.734 118.489C105.92 119.544 105.428 120.675 104.347 121.675Z" fill="black"/>
</g>
<path d="M133.559 89.3654C132.944 88.9738 132.202 88.9034 131.525 89.1696C130.855 89.4338 130.369 89.9865 130.19 90.6838L125.61 108.585C125.085 108.117 124.486 107.681 123.819 107.296C122.243 106.387 120.525 105.907 119.005 105.948C117.364 105.992 116.11 106.622 115.474 107.724C114.2 109.929 115.869 113.194 119.275 115.159C120.852 116.07 122.485 116.517 123.909 116.517C125.561 116.517 126.936 115.915 127.62 114.732C127.784 114.447 127.897 114.144 127.966 113.831L132.521 96.5963C134.788 98.3141 136.64 101.986 138.167 107.775C138.247 108.074 138.53 108.27 138.839 108.241C139.147 108.21 139.387 107.96 139.405 107.651C139.962 98.2012 138.051 92.2193 133.559 89.3654ZM119.906 114.069C117.205 112.512 115.676 109.894 116.565 108.354C116.974 107.645 117.852 107.239 119.039 107.207C119.089 107.206 119.138 107.205 119.188 107.205C120.45 107.205 121.864 107.622 123.189 108.386C125.889 109.944 127.418 112.562 126.529 114.102C125.638 115.641 122.604 115.627 119.906 114.069ZM132.446 95.0415C132.276 94.946 132.071 94.9335 131.891 95.0097C131.711 95.0859 131.577 95.2392 131.527 95.4283L127.445 110.873C127.23 110.461 126.956 110.055 126.636 109.659L131.411 90.9954C131.488 90.6935 131.7 90.4553 131.989 90.3405C132.286 90.2228 132.612 90.2537 132.883 90.4273C136.262 92.5743 138.052 97.0004 138.223 103.611C136.651 99.1185 134.779 96.359 132.446 95.0415Z" fill="black"/>
<path d="M76.3571 107.786C77.0814 107.7 77.7006 107.286 78.0546 106.649C78.4057 106.02 78.4317 105.286 78.1279 104.634L70.3241 87.8704C70.4755 87.8771 70.625 87.8897 70.7784 87.8897C71.3522 87.8897 71.9406 87.8424 72.5328 87.7459C76.413 87.1113 79.131 84.647 78.7201 82.1335C78.3083 79.6209 74.946 78.1491 71.0658 78.7847C69.2708 79.0779 67.6447 79.7897 66.4873 80.788C65.245 81.8596 64.674 83.1414 64.8794 84.3972C64.9315 84.7164 65.0338 85.0212 65.1804 85.3086L72.5781 101.535C69.7357 101.638 65.9751 99.9682 61.1246 96.4554C60.8729 96.2731 60.5285 96.3001 60.3096 96.5201C60.0897 96.739 60.0627 97.0843 60.245 97.3341C65.3694 104.404 70.2488 107.862 75.1215 107.861C75.5324 107.861 75.9452 107.837 76.3571 107.786ZM67.311 81.74C68.2938 80.8912 69.7 80.2836 71.2693 80.027C71.7892 79.9421 72.3023 79.9016 72.798 79.9016C75.2344 79.9016 77.2376 80.8787 77.4759 82.337C77.7633 84.0924 75.4061 86.0002 72.3293 86.5037C70.76 86.7602 69.2342 86.6319 68.0305 86.14C66.9319 85.6915 66.2548 85 66.1227 84.1937C65.9905 83.3873 66.412 82.5154 67.311 81.74ZM63.7191 99.7126C67.7836 102.195 70.9828 103.146 73.6208 102.689C73.8137 102.656 73.9795 102.536 74.0702 102.363C74.1618 102.19 74.1676 101.985 74.0866 101.808L67.4527 87.2579C67.4875 87.2733 67.5183 87.2907 67.554 87.3052C67.9591 87.4701 68.396 87.5936 68.8503 87.689L76.9849 105.166C77.1161 105.448 77.1055 105.767 76.9541 106.039C76.7978 106.318 76.5258 106.499 76.2066 106.537C72.2328 107.012 68.0411 104.719 63.7191 99.7126Z" fill="black"/>
<mask id="mask1_506_5915" style="mask-type:luminance" maskUnits="userSpaceOnUse" x="108" y="68" width="30" height="33">
<path d="M108.642 68.2186H137.284V100.988H108.642V68.2186Z" fill="white"/>
</mask>
<g mask="url(#mask1_506_5915)">
<path d="M126.574 95.7842L126.594 74.8717C127.49 75.4842 128.787 75.8353 130.266 75.8353C130.788 75.8353 131.332 75.7919 131.89 75.7002C135.228 75.1553 137.582 73.1414 137.251 71.1159C137.082 70.083 136.26 69.2487 134.937 68.7674C133.739 68.3304 132.235 68.2282 130.707 68.478C129.178 68.7278 127.787 69.3036 126.789 70.0994C125.725 70.9481 125.217 71.9608 125.338 72.962L125.319 91.4554L110.012 95.4157V79.4155C110.908 80.027 112.203 80.3771 113.682 80.3771C114.203 80.3771 114.747 80.3337 115.305 80.2431C118.643 79.6972 120.997 77.6833 120.667 75.6578C120.497 74.6248 119.675 73.7905 118.353 73.3092C117.154 72.8733 115.651 72.7701 114.122 73.0199C112.594 73.2697 111.202 73.8465 110.205 74.6422C109.141 75.49 108.632 76.5027 108.753 77.5039V100.301C108.753 100.498 108.845 100.682 109 100.802C109.111 100.885 109.246 100.931 109.383 100.931C109.438 100.931 109.494 100.923 109.549 100.909L126.111 96.3908C126.383 96.3166 126.574 96.0677 126.574 95.7842ZM127.575 71.0831C128.407 70.4196 129.591 69.9363 130.911 69.7203C131.394 69.6412 131.87 69.6017 132.331 69.6017C133.127 69.6017 133.873 69.7193 134.506 69.9499C135.37 70.2643 135.916 70.7629 136.008 71.3195C136.191 72.4402 134.462 74.0046 131.687 74.458C128.912 74.9103 126.772 73.9796 126.589 72.8588C126.498 72.3032 126.858 71.6551 127.575 71.0831ZM110.991 75.625C111.822 74.9614 113.006 74.4782 114.325 74.2622C114.808 74.1831 115.286 74.1435 115.746 74.1435C116.542 74.1435 117.287 74.2612 117.921 74.4917C118.785 74.8061 119.332 75.3058 119.422 75.8613C119.606 76.9821 117.876 78.5465 115.101 78.9998C112.326 79.4522 110.187 78.5214 110.004 77.4007C109.912 76.8451 110.272 76.1979 110.991 75.625ZM110.012 99.4763V96.7149L125.317 92.7546L125.315 95.3029L110.012 99.4763Z" fill="black"/>
</g>
</svg>
