<svg width="300" height="300" viewBox="0 0 300 300" fill="none" xmlns="http://www.w3.org/2000/svg">
<mask id="mask0_506_5916" style="mask-type:luminance" maskUnits="userSpaceOnUse" x="90" y="105" width="120" height="90">
<path d="M90 105.273H210V194.718H90V105.273Z" fill="white"/>
</mask>
<g mask="url(#mask0_506_5916)">
<path d="M197.539 113.024C194.391 107.622 184.154 105.681 182.989 105.45C182.868 105.43 182.746 105.418 182.623 105.42H167.937C167.72 105.418 167.507 105.45 167.3 105.517C167.093 105.582 166.901 105.676 166.725 105.802C166.547 105.926 166.392 106.075 166.26 106.247C166.13 106.421 166.027 106.609 165.955 106.814C165.666 107.624 165.315 108.409 164.906 109.165C164.497 109.922 164.032 110.642 163.511 111.328C162.99 112.012 162.42 112.653 161.801 113.251C161.182 113.848 160.521 114.395 159.818 114.892C159.115 115.388 158.377 115.826 157.606 116.21C156.836 116.591 156.04 116.913 155.22 117.173C154.4 117.432 153.563 117.629 152.713 117.76C151.863 117.892 151.007 117.957 150.146 117.957C149.287 117.957 148.43 117.892 147.581 117.76C146.73 117.629 145.894 117.432 145.074 117.173C144.254 116.913 143.458 116.591 142.688 116.21C141.917 115.826 141.179 115.388 140.476 114.892C139.773 114.395 139.112 113.848 138.493 113.251C137.873 112.653 137.303 112.012 136.782 111.328C136.262 110.642 135.797 109.922 135.388 109.165C134.978 108.409 134.628 107.624 134.339 106.814C134.264 106.603 134.158 106.408 134.021 106.231C133.883 106.053 133.721 105.901 133.536 105.776C133.349 105.651 133.148 105.557 132.933 105.496C132.717 105.436 132.497 105.409 132.273 105.42H117.241C116.056 105.618 105.609 107.516 102.441 113.002L91.4265 132.102C91.2891 132.339 91.1632 132.584 91.0504 132.834C90.9375 133.085 90.8363 133.341 90.748 133.601C90.6597 133.861 90.5845 134.126 90.5223 134.394C90.4601 134.662 90.4109 134.932 90.3762 135.204C90.34 135.477 90.3183 135.751 90.3082 136.026C90.2995 136.301 90.3053 136.574 90.3227 136.849C90.3415 137.124 90.3733 137.396 90.4181 137.668C90.463 137.938 90.5209 138.208 90.5932 138.472C90.6641 138.738 90.748 138.999 90.8449 139.256C90.9433 139.514 91.0518 139.766 91.1733 140.012C91.2963 140.259 91.4294 140.499 91.5755 140.732C91.7202 140.965 91.8765 141.191 92.0443 141.409C92.2121 141.626 92.3901 141.836 92.5782 142.037C92.7662 142.237 92.9644 142.428 93.1713 142.609C93.3782 142.789 93.5938 142.96 93.818 143.121C94.0408 143.28 94.2723 143.429 94.511 143.566L104.507 149.335C104.729 149.462 104.957 149.579 105.191 149.686C105.424 149.793 105.661 149.89 105.903 149.974C106.146 150.059 106.39 150.133 106.639 150.197C106.888 150.259 107.14 150.31 107.393 150.35C107.646 150.389 107.901 150.417 108.157 150.433C108.413 150.45 108.67 150.454 108.927 150.447C109.183 150.44 109.439 150.421 109.693 150.389C109.948 150.359 110.201 150.317 110.451 150.263C110.702 150.208 110.951 150.143 111.195 150.067C111.44 149.99 111.681 149.903 111.917 149.803C112.154 149.705 112.386 149.596 112.613 149.476C112.84 149.356 113.06 149.226 113.275 149.086C113.49 148.945 113.698 148.795 113.899 148.636C114.1 148.477 114.294 148.309 114.479 148.132C114.666 147.954 114.842 147.769 115.012 147.577C115.179 147.383 115.339 147.182 115.489 146.975V186.181C115.489 186.455 115.503 186.729 115.53 187.002C115.557 187.276 115.598 187.548 115.651 187.817C115.705 188.087 115.771 188.354 115.851 188.616C115.93 188.879 116.023 189.138 116.129 189.391C116.234 189.646 116.351 189.893 116.48 190.136C116.61 190.378 116.751 190.613 116.904 190.842C117.056 191.071 117.219 191.291 117.394 191.503C117.568 191.716 117.753 191.92 117.947 192.114C118.142 192.308 118.345 192.493 118.558 192.666C118.77 192.841 118.99 193.005 119.219 193.157C119.447 193.31 119.683 193.451 119.925 193.581C120.168 193.71 120.415 193.827 120.67 193.932C120.923 194.038 121.182 194.131 121.445 194.21C121.709 194.29 121.975 194.356 122.244 194.41C122.513 194.463 122.785 194.504 123.058 194.531C123.332 194.557 123.607 194.572 123.882 194.572H176.328C176.603 194.572 176.878 194.557 177.151 194.531C177.425 194.504 177.697 194.463 177.966 194.41C178.235 194.356 178.501 194.29 178.765 194.21C179.028 194.131 179.287 194.038 179.54 193.932C179.795 193.827 180.042 193.71 180.285 193.581C180.527 193.451 180.762 193.31 180.991 193.157C181.22 193.005 181.44 192.841 181.652 192.666C181.865 192.493 182.067 192.308 182.263 192.114C182.457 191.92 182.642 191.716 182.815 191.503C182.99 191.291 183.154 191.071 183.306 190.842C183.459 190.613 183.6 190.378 183.73 190.136C183.859 189.893 183.976 189.646 184.081 189.391C184.187 189.138 184.28 188.879 184.359 188.616C184.439 188.354 184.505 188.087 184.559 187.817C184.612 187.548 184.653 187.276 184.68 187.002C184.706 186.729 184.721 186.455 184.721 186.181V147.289C185.03 147.679 185.373 148.04 185.748 148.368C186.123 148.698 186.522 148.99 186.949 149.249C187.376 149.507 187.823 149.725 188.289 149.903C188.754 150.081 189.232 150.217 189.722 150.31C190.211 150.402 190.706 150.451 191.204 150.457C191.703 150.462 192.198 150.423 192.69 150.34C193.181 150.256 193.662 150.13 194.131 149.961C194.601 149.793 195.051 149.583 195.483 149.335L205.479 143.566C205.718 143.429 205.948 143.28 206.172 143.119C206.395 142.96 206.61 142.789 206.817 142.607C207.024 142.426 207.221 142.235 207.409 142.036C207.597 141.835 207.775 141.625 207.941 141.408C208.109 141.189 208.265 140.964 208.411 140.729C208.556 140.496 208.689 140.256 208.811 140.01C208.932 139.764 209.042 139.511 209.139 139.255C209.236 138.997 209.32 138.736 209.391 138.471C209.462 138.205 209.52 137.937 209.565 137.665C209.609 137.394 209.641 137.121 209.659 136.848C209.677 136.573 209.682 136.298 209.673 136.023C209.663 135.748 209.641 135.475 209.605 135.203C209.569 134.931 209.52 134.66 209.458 134.392C209.395 134.125 209.32 133.86 209.232 133.6C209.144 133.341 209.042 133.085 208.929 132.834C208.815 132.584 208.689 132.339 208.552 132.102L197.539 113.024ZM169.311 109.614H171V130.592H160.511V119.421C161.482 118.864 162.403 118.235 163.274 117.532C164.144 116.827 164.954 116.059 165.7 115.227C166.448 114.394 167.125 113.507 167.73 112.565C168.336 111.623 168.863 110.64 169.311 109.614ZM173.119 134.787H173.181V149.157L165.839 152.418L158.497 149.157V134.787H173.119ZM164.99 156.635C165.262 156.755 165.547 156.816 165.845 156.816C166.143 156.816 166.428 156.755 166.7 156.635L171.084 154.715V190.376H160.595V154.663L164.99 156.635ZM156.315 121.246V130.592C156.181 130.596 156.047 130.615 155.917 130.645C155.787 130.676 155.66 130.719 155.538 130.774C155.415 130.829 155.3 130.896 155.19 130.974C155.08 131.05 154.978 131.137 154.886 131.234C154.792 131.331 154.709 131.437 154.637 131.55C154.563 131.662 154.502 131.781 154.452 131.905C154.403 132.03 154.363 132.159 154.339 132.29C154.313 132.422 154.301 132.555 154.301 132.69V150.519C154.301 150.722 154.329 150.922 154.387 151.117C154.444 151.311 154.528 151.495 154.64 151.664C154.751 151.835 154.883 151.986 155.038 152.118C155.192 152.25 155.363 152.357 155.548 152.439L156.357 152.795L156.399 190.376H145.909L145.825 121.749C147.565 122.121 149.324 122.266 151.102 122.182C152.879 122.098 154.617 121.79 156.315 121.257V121.246ZM141.629 120.386L141.713 190.376H131.224L131.14 110.117C131.672 111.251 132.3 112.331 133.027 113.352C133.751 114.374 134.562 115.323 135.457 116.199C136.353 117.076 137.319 117.866 138.355 118.569C139.392 119.272 140.483 119.879 141.629 120.386ZM119.685 186.181V122.201C119.685 122.063 119.672 121.926 119.646 121.791C119.618 121.657 119.579 121.525 119.525 121.398C119.473 121.27 119.408 121.15 119.332 121.034C119.255 120.92 119.168 120.815 119.071 120.718C118.973 120.619 118.867 120.532 118.753 120.456C118.639 120.381 118.517 120.315 118.39 120.262C118.262 120.21 118.132 120.169 117.996 120.143C117.862 120.116 117.726 120.103 117.587 120.103C117.449 120.103 117.313 120.116 117.179 120.143C117.043 120.169 116.911 120.21 116.784 120.262C116.658 120.315 116.536 120.381 116.422 120.456C116.308 120.532 116.201 120.619 116.104 120.718C116.007 120.815 115.92 120.92 115.843 121.034C115.767 121.15 115.702 121.27 115.65 121.398C115.596 121.525 115.557 121.657 115.53 121.791C115.503 121.926 115.489 122.063 115.489 122.201V138.678L112.342 144.174C112.205 144.413 112.044 144.634 111.863 144.841C111.681 145.048 111.482 145.234 111.263 145.402C111.045 145.569 110.812 145.713 110.564 145.835C110.318 145.956 110.062 146.053 109.796 146.124C109.53 146.195 109.259 146.24 108.986 146.257C108.711 146.276 108.438 146.266 108.164 146.231C107.891 146.195 107.624 146.133 107.364 146.045C107.104 145.956 106.853 145.842 106.616 145.705L96.6088 139.936C96.3701 139.799 96.1473 139.638 95.9419 139.458C95.735 139.275 95.5469 139.076 95.3805 138.857C95.2127 138.639 95.068 138.406 94.9465 138.158C94.825 137.912 94.7295 137.656 94.6586 137.39C94.5863 137.124 94.5429 136.853 94.524 136.58C94.5067 136.305 94.5154 136.032 94.5515 135.758C94.5877 135.486 94.6499 135.219 94.7382 134.958C94.8264 134.698 94.9393 134.449 95.0767 134.21L106.049 115.12C107.675 112.311 114.01 110.275 117.745 109.614H126.923L127.028 190.376H123.882C123.605 190.376 123.333 190.349 123.063 190.295C122.792 190.242 122.53 190.162 122.276 190.056C122.021 189.951 121.78 189.822 121.55 189.669C121.321 189.515 121.11 189.342 120.914 189.146C120.719 188.953 120.545 188.74 120.392 188.511C120.239 188.283 120.11 188.04 120.004 187.787C119.899 187.532 119.819 187.269 119.766 186.999C119.712 186.729 119.685 186.455 119.685 186.181ZM205.333 137.387C205.188 137.925 204.948 138.414 204.609 138.856C204.272 139.298 203.863 139.657 203.381 139.936L193.384 145.705C193.147 145.842 192.896 145.956 192.636 146.045C192.376 146.133 192.109 146.195 191.836 146.231C191.563 146.266 191.289 146.276 191.014 146.257C190.741 146.24 190.47 146.195 190.204 146.124C189.938 146.053 189.682 145.956 189.436 145.835C189.188 145.713 188.955 145.569 188.737 145.402C188.519 145.234 188.319 145.048 188.137 144.841C187.956 144.634 187.795 144.413 187.658 144.174L184.721 139.087V125.347C184.721 125.21 184.706 125.072 184.68 124.938C184.653 124.803 184.614 124.672 184.56 124.544C184.508 124.417 184.443 124.295 184.366 124.181C184.29 124.067 184.203 123.961 184.106 123.864C184.009 123.766 183.902 123.679 183.788 123.602C183.673 123.526 183.552 123.462 183.425 123.409C183.299 123.357 183.167 123.316 183.031 123.29C182.896 123.262 182.76 123.249 182.623 123.249C182.484 123.249 182.348 123.262 182.214 123.29C182.078 123.316 181.947 123.357 181.82 123.409C181.693 123.462 181.571 123.526 181.457 123.602C181.343 123.679 181.237 123.766 181.139 123.864C181.042 123.961 180.955 124.067 180.878 124.181C180.802 124.295 180.736 124.417 180.684 124.544C180.631 124.672 180.592 124.803 180.564 124.938C180.538 125.072 180.525 125.21 180.525 125.347V186.181C180.525 186.455 180.498 186.729 180.444 186.999C180.391 187.269 180.311 187.532 180.205 187.787C180.1 188.04 179.971 188.283 179.818 188.511C179.664 188.74 179.491 188.953 179.295 189.146C179.1 189.342 178.889 189.515 178.66 189.669C178.43 189.822 178.189 189.951 177.934 190.056C177.679 190.162 177.418 190.242 177.147 190.295C176.876 190.349 176.604 190.376 176.328 190.376H175.279V152.837L176.172 152.439C176.353 152.354 176.519 152.244 176.67 152.111C176.82 151.978 176.949 151.826 177.056 151.657C177.163 151.486 177.244 151.304 177.299 151.111C177.354 150.917 177.38 150.721 177.377 150.519V132.69C177.377 132.551 177.364 132.415 177.338 132.28C177.311 132.144 177.27 132.014 177.218 131.887C177.166 131.759 177.101 131.638 177.024 131.523C176.947 131.409 176.861 131.304 176.764 131.205C176.665 131.108 176.56 131.021 176.445 130.945C176.331 130.868 176.21 130.803 176.082 130.751C175.955 130.699 175.825 130.658 175.689 130.632C175.554 130.605 175.418 130.592 175.279 130.592H175.217V109.614H182.455C186.126 110.307 192.325 112.363 193.919 115.12L204.933 134.2C205.208 134.683 205.381 135.201 205.45 135.754C205.519 136.306 205.48 136.85 205.333 137.387Z" fill="black"/>
</g>
</svg>
