<svg width="300" height="300" viewBox="0 0 300 300" fill="none" xmlns="http://www.w3.org/2000/svg">
<path d="M149.391 168.501C147.628 168.501 146.192 169.936 146.192 171.698C146.192 173.461 147.628 174.896 149.391 174.896C151.155 174.896 152.59 173.462 152.59 171.698C152.59 169.935 151.155 168.501 149.391 168.501ZM149.391 172.99C148.676 172.99 148.095 172.412 148.095 171.7C148.095 170.987 148.676 170.408 149.391 170.408C150.106 170.408 150.687 170.987 150.687 171.7C150.686 172.41 150.106 172.99 149.391 172.99Z" fill="black"/>
<path d="M138.155 168.501C136.392 168.501 134.957 169.936 134.957 171.698C134.957 173.461 136.392 174.896 138.155 174.896C139.919 174.896 141.354 173.462 141.354 171.698C141.354 169.935 139.919 168.501 138.155 168.501ZM138.155 172.99C137.441 172.99 136.859 172.412 136.859 171.7C136.859 170.987 137.441 170.408 138.155 170.408C138.87 170.408 139.45 170.987 139.45 171.7C139.45 172.41 138.87 172.99 138.155 172.99Z" fill="black"/>
<path d="M160.627 168.501C158.863 168.501 157.428 169.936 157.428 171.698C157.428 173.461 158.863 174.896 160.627 174.896C162.39 174.896 163.825 173.462 163.825 171.698C163.825 169.935 162.39 168.501 160.627 168.501ZM160.627 172.99C159.912 172.99 159.33 172.412 159.33 171.7C159.33 170.987 159.912 170.408 160.627 170.408C161.341 170.408 161.923 170.987 161.923 171.7C161.923 172.41 161.341 172.99 160.627 172.99Z" fill="black"/>
<path d="M156.132 112.39H142.649C142.124 112.39 141.699 112.817 141.699 113.343V120.077C141.699 120.603 142.124 121.03 142.649 121.03H156.132C156.657 121.03 157.084 120.603 157.084 120.077V113.343C157.084 112.817 156.657 112.39 156.132 112.39ZM155.181 119.125H143.601V114.295H155.181V119.125Z" fill="black"/>
<mask id="mask0_506_5917" style="mask-type:luminance" maskUnits="userSpaceOnUse" x="90" y="93" width="120" height="114">
<path d="M90 93.818H210V206.318H90V93.818Z" fill="white"/>
</mask>
<g mask="url(#mask0_506_5917)">
<path d="M209.877 110.936C209.805 110.522 209.471 110.204 209.054 110.153C207.206 109.929 205.365 109.56 203.579 109.06C202.47 108.747 201.364 108.38 200.294 107.966C200 107.852 199.672 107.892 199.413 108.069C199.155 108.247 198.999 108.54 198.999 108.854V115.569C198.999 115.582 198.999 115.595 198.999 115.609V122.12C188.538 114.361 170.667 109.194 150.342 109.036V102.189L158.804 97.963C159.18 97.7749 159.388 97.3626 159.316 96.9488C159.245 96.5336 158.911 96.2153 158.494 96.1646C156.645 95.9418 154.803 95.5729 153.018 95.0723C151.914 94.7613 150.809 94.3938 149.734 93.9771C149.44 93.8643 149.112 93.9034 148.853 94.0799C148.594 94.2578 148.441 94.553 148.441 94.8655V101.58C148.441 101.593 148.441 101.606 148.441 101.62V109.035C128.115 109.193 110.245 114.359 99.7817 122.12V116.178L108.244 111.952C108.62 111.764 108.828 111.351 108.757 110.938C108.685 110.522 108.351 110.204 107.934 110.153C106.087 109.931 104.244 109.562 102.46 109.061C101.35 108.749 100.245 108.38 99.1741 107.967C98.8804 107.853 98.5505 107.892 98.293 108.07C98.034 108.248 97.8792 108.542 97.8792 108.856V115.57C97.8792 115.583 97.8792 115.596 97.8792 115.609V123.634C92.885 127.879 90.0146 132.794 90.0146 138.032V177.31C90.0146 189.974 106.716 200.76 129.916 204.708C130.032 204.757 130.158 204.784 130.291 204.784C130.305 204.784 130.317 204.777 130.331 204.776C132.484 205.133 134.691 205.435 136.946 205.671C136.975 205.674 137.001 205.689 137.031 205.689C137.04 205.689 137.047 205.684 137.056 205.684C141.038 206.097 145.161 206.317 149.39 206.317C153.62 206.317 157.743 206.097 161.725 205.684C161.733 205.684 161.741 205.689 161.749 205.689C161.78 205.689 161.806 205.674 161.833 205.671C164.09 205.435 166.295 205.133 168.449 204.776C168.464 204.777 168.475 204.784 168.49 204.784C168.623 204.784 168.749 204.757 168.863 204.708C192.065 200.76 208.766 189.973 208.766 177.31V138.032C208.766 132.794 205.894 127.879 200.9 123.633V116.178L209.362 111.952C209.74 111.764 209.95 111.35 209.877 110.936ZM150.343 96.2298C151.058 96.4771 151.783 96.7028 152.505 96.9068C153.426 97.1658 154.364 97.3901 155.307 97.581L150.343 100.059V96.2298ZM99.7817 110.216C100.495 110.463 101.22 110.689 101.945 110.893C102.866 111.152 103.804 111.377 104.747 111.568L99.7817 114.048V110.216ZM161.751 183.092H137.031C136.506 183.092 136.079 183.519 136.079 184.044V203.672C134.439 203.488 132.826 203.27 131.243 203.021V178.264H167.541V203.021C165.956 203.271 164.342 203.488 162.701 203.672V184.044C162.701 183.517 162.276 183.092 161.751 183.092ZM168.491 176.357H130.29C129.764 176.357 129.339 176.784 129.339 177.31V185.864C106.908 181.895 91.9171 171.767 91.9171 160.477V145.354C91.9316 145.373 91.9475 145.388 91.962 145.404C93.1715 147.65 94.9177 149.793 97.1342 151.794C97.2427 152.004 97.4264 152.164 97.6608 152.245C99.3607 153.717 101.305 155.111 103.485 156.409C103.587 156.536 103.71 156.651 103.873 156.714C103.943 156.74 104.013 156.74 104.083 156.752C106.097 157.912 108.293 158.993 110.65 159.987C110.695 160.029 110.728 160.077 110.781 160.11C110.932 160.201 111.1 160.246 111.266 160.247C114.228 161.463 117.435 162.542 120.847 163.459C120.983 163.534 121.133 163.589 121.301 163.589C121.308 163.589 121.315 163.587 121.323 163.585C129.686 165.787 139.244 167.038 149.39 167.038C159.537 167.038 169.095 165.787 177.458 163.585C177.465 163.585 177.471 163.589 177.478 163.589C177.646 163.589 177.797 163.534 177.933 163.459C181.357 162.538 184.573 161.454 187.545 160.234C187.701 160.227 187.856 160.195 187.998 160.109C188.051 160.077 188.085 160.027 188.128 159.987C190.482 158.995 192.678 157.915 194.688 156.755C194.761 156.745 194.834 156.742 194.906 156.713C195.07 156.649 195.191 156.536 195.292 156.408C197.505 155.091 199.476 153.676 201.194 152.18C201.372 152.099 201.522 151.979 201.619 151.816C203.849 149.808 205.603 147.658 206.817 145.401C206.832 145.385 206.849 145.37 206.862 145.353V160.475C206.862 171.765 191.871 181.892 169.442 185.862V177.309C169.443 176.784 169.016 176.357 168.491 176.357ZM195.015 154.488C189.874 143.692 170.997 135.958 149.39 135.958C127.784 135.958 108.906 143.692 103.768 154.488C102.017 153.411 100.43 152.273 99.0309 151.076C102.069 139.851 123.969 131.128 149.391 131.128C174.803 131.128 196.712 139.854 199.75 151.076C198.352 152.273 196.765 153.411 195.015 154.488ZM187.885 158.139C181.693 148.872 166.376 142.691 149.391 142.691C132.405 142.691 117.091 148.872 110.897 158.139C108.944 157.306 107.117 156.411 105.42 155.46C110.113 145.22 128.37 137.863 149.391 137.863C170.413 137.863 188.671 145.22 193.362 155.46C191.665 156.409 189.838 157.306 187.885 158.139ZM150.343 165.124V151.33H176.528V161.917C168.704 163.902 159.796 165.051 150.343 165.124ZM122.253 161.917V151.33H148.441V165.124C138.986 165.051 130.078 163.902 122.253 161.917ZM112.695 158.874C114.518 156.262 117.137 153.918 120.35 151.918V161.406C117.652 160.658 115.09 159.813 112.695 158.874ZM149.391 149.424H125.062C131.865 146.37 140.371 144.596 149.391 144.596C158.412 144.596 166.917 146.37 173.718 149.424H149.391ZM178.43 151.918C181.645 153.918 184.264 156.262 186.087 158.874C183.691 159.813 181.129 160.658 178.43 161.406V151.918ZM201.301 149.654C197.149 137.908 175.376 129.225 149.39 129.225C123.394 129.225 101.632 137.908 97.4799 149.656C95.9189 148.112 94.653 146.487 93.7299 144.799C100.308 132.765 123.064 124.395 149.391 124.395C175.719 124.395 198.474 132.765 205.051 144.799C204.128 146.486 202.862 148.109 201.301 149.654ZM91.9171 177.31V167.771C96.7652 176.943 110.579 184.537 129.339 187.798V202.708C107.506 198.863 91.9171 188.929 91.9171 177.31ZM137.983 203.874V184.997H160.799V203.876C157.11 204.227 153.296 204.413 149.391 204.413C145.486 204.413 141.671 204.227 137.983 203.874ZM206.865 177.31C206.865 188.929 191.275 198.863 169.443 202.708V187.798C188.203 184.537 202.017 176.943 206.865 167.771V177.31ZM206.865 138.032C206.865 139.618 206.558 141.168 206.001 142.679C198.296 130.71 175.509 122.491 149.391 122.491C123.273 122.491 100.485 130.71 92.7794 142.679C92.2238 141.168 91.9171 139.618 91.9171 138.032C91.9171 133.234 94.5864 128.725 99.245 124.812C99.3708 124.75 99.4736 124.661 99.5589 124.554C109.491 116.421 128.101 110.929 149.391 110.929C170.682 110.929 189.293 116.421 199.223 124.554C199.31 124.661 199.413 124.75 199.537 124.812C204.196 128.725 206.865 133.234 206.865 138.032ZM200.903 114.048V110.217C201.616 110.463 202.34 110.69 203.064 110.894C203.987 111.153 204.924 111.379 205.868 111.568L200.903 114.048Z" fill="black"/>
</g>
</svg>
