<svg width="200" height="200" viewBox="0 0 200 200" fill="none" xmlns="http://www.w3.org/2000/svg">
<mask id="mask0_506_5918" style="mask-type:luminance" maskUnits="userSpaceOnUse" x="69" y="64" width="62" height="26">
<path d="M69.8833 64.1975H130.068V89.1358H69.8833V64.1975Z" fill="white"/>
</mask>
<g mask="url(#mask0_506_5918)">
<path d="M113.533 89.021C113.391 89.021 113.254 88.9979 113.121 88.9506C112.988 88.9043 112.867 88.8368 112.757 88.7481C112.647 88.6603 112.554 88.5562 112.48 88.4356C112.406 88.316 112.353 88.1877 112.323 88.0498C112.292 87.9119 112.285 87.773 112.301 87.6322C112.319 87.4923 112.358 87.3592 112.42 87.2319C112.483 87.1055 112.565 86.9927 112.665 86.8943C112.766 86.7959 112.88 86.7159 113.008 86.657C121.57 82.664 127.042 75.1254 127.538 66.7766H118.779C118.698 66.7766 118.617 66.7689 118.537 66.7525C118.458 66.7371 118.38 66.7139 118.305 66.6821C118.229 66.6513 118.158 66.6127 118.09 66.5673C118.023 66.523 117.96 66.4709 117.902 66.414C117.845 66.3561 117.793 66.2934 117.749 66.2259C117.704 66.1574 117.665 66.0861 117.634 66.0108C117.603 65.9356 117.579 65.8584 117.564 65.7784C117.547 65.6983 117.54 65.6183 117.54 65.5363C117.54 65.4553 117.547 65.3742 117.564 65.2942C117.579 65.2151 117.603 65.137 117.634 65.0617C117.665 64.9865 117.704 64.9151 117.749 64.8476C117.793 64.7801 117.845 64.7174 117.902 64.6595C117.96 64.6017 118.023 64.5506 118.09 64.5052C118.158 64.4599 118.229 64.4213 118.305 64.3905C118.38 64.3596 118.458 64.3355 118.537 64.32C118.617 64.3036 118.698 64.2959 118.779 64.2959H128.814C128.896 64.2959 128.976 64.3036 129.056 64.32C129.136 64.3355 129.213 64.3596 129.288 64.3905C129.364 64.4213 129.435 64.4599 129.502 64.5052C129.57 64.5506 129.633 64.6017 129.691 64.6595C129.747 64.7174 129.8 64.7801 129.845 64.8476C129.889 64.9151 129.928 64.9865 129.959 65.0617C129.99 65.137 130.014 65.2151 130.029 65.2942C130.045 65.3742 130.053 65.4553 130.053 65.5363C130.053 75.3492 123.923 84.3027 114.056 88.9043C113.89 88.9825 113.715 89.021 113.533 89.021ZM86.4122 89.021C86.2299 89.021 86.0553 88.9825 85.8894 88.9043C76.0215 84.3027 69.8921 75.3492 69.8921 65.5363C69.8921 65.4553 69.8998 65.3742 69.9152 65.2942C69.9316 65.2151 69.9548 65.137 69.9866 65.0617C70.0175 64.9865 70.0551 64.9151 70.1004 64.8476C70.1458 64.7801 70.1969 64.7174 70.2547 64.6595C70.3126 64.6017 70.3753 64.5506 70.4428 64.5052C70.5103 64.4599 70.5817 64.4213 70.6569 64.3905C70.7322 64.3596 70.8093 64.3355 70.8894 64.32C70.9694 64.3036 71.0495 64.2959 71.1315 64.2959H81.1662C81.2472 64.2959 81.3282 64.3036 81.4083 64.32C81.4874 64.3355 81.5655 64.3596 81.6407 64.3905C81.716 64.4213 81.7873 64.4599 81.8549 64.5052C81.9224 64.5506 81.9851 64.6017 82.042 64.6595C82.0998 64.7174 82.151 64.7801 82.1963 64.8476C82.2416 64.9151 82.2802 64.9865 82.3111 65.0617C82.3419 65.137 82.366 65.2151 82.3815 65.2942C82.3979 65.3742 82.4056 65.4553 82.4056 65.5363C82.4056 65.6183 82.3979 65.6983 82.3815 65.7784C82.366 65.8584 82.3419 65.9356 82.3111 66.0108C82.2802 66.0861 82.2416 66.1574 82.1963 66.2259C82.151 66.2934 82.0998 66.3561 82.042 66.414C81.9851 66.4709 81.9224 66.523 81.8549 66.5673C81.7873 66.6127 81.716 66.6513 81.6407 66.6821C81.5655 66.7139 81.4874 66.7371 81.4083 66.7525C81.3282 66.7689 81.2472 66.7766 81.1662 66.7766H72.4075C72.9023 75.1254 78.372 82.664 86.9368 86.657C87.0651 86.7159 87.1789 86.7959 87.2802 86.8943C87.3805 86.9927 87.4625 87.1055 87.5242 87.2319C87.5869 87.3592 87.6265 87.4923 87.6438 87.6322C87.6602 87.773 87.6535 87.9119 87.6226 88.0498C87.5927 88.1877 87.5397 88.316 87.4654 88.4356C87.3911 88.5562 87.2985 88.6603 87.1886 88.7481C87.0786 88.8368 86.9571 88.9043 86.824 88.9506C86.6909 88.9979 86.5539 89.021 86.4122 89.021Z" fill="black"/>
</g>
<mask id="mask1_506_5918" style="mask-type:luminance" maskUnits="userSpaceOnUse" x="79" y="60" width="42" height="40">
<path d="M79.7532 60H120.247V99.7531H79.7532V60Z" fill="white"/>
</mask>
<g mask="url(#mask1_506_5918)">
<path d="M99.9722 99.6219C97.3458 99.6219 94.8024 98.7644 92.4105 97.0737C90.004 95.3684 87.8628 92.8954 86.0447 89.7097C82.0941 82.7942 79.9249 72.9543 79.7706 61.2538C79.7696 61.1719 79.7764 61.0908 79.7909 61.0098C79.8063 60.9288 79.8294 60.8507 79.8603 60.7745C79.8902 60.6983 79.9288 60.6259 79.9731 60.5575C80.0185 60.489 80.0696 60.4253 80.1275 60.3665C80.1853 60.3086 80.248 60.2556 80.3155 60.2102C80.384 60.1639 80.4554 60.1254 80.5316 60.0935C80.6068 60.0617 80.685 60.0376 80.766 60.0222C80.846 60.0058 80.928 59.998 81.01 59.998H118.934C119.016 59.998 119.097 60.0058 119.177 60.0222C119.258 60.0376 119.337 60.0617 119.412 60.0935C119.488 60.1254 119.559 60.1639 119.628 60.2102C119.695 60.2556 119.758 60.3086 119.816 60.3665C119.874 60.4253 119.925 60.489 119.97 60.5575C120.016 60.6259 120.053 60.6983 120.084 60.7745C120.114 60.8507 120.137 60.9288 120.153 61.0098C120.167 61.0908 120.175 61.1719 120.174 61.2538C120.018 72.9543 117.849 82.7942 113.899 89.7097C112.082 92.8935 109.939 95.3684 107.534 97.0737C105.143 98.7644 102.599 99.6219 99.9722 99.6219ZM82.2745 62.4807C82.5551 73.205 84.598 82.174 88.1965 88.4809C91.3852 94.0663 95.5673 97.1412 99.9703 97.1412C104.373 97.1412 108.56 94.0663 111.747 88.4809C115.347 82.174 117.387 73.205 117.668 62.4807H82.2745Z" fill="black"/>
</g>
<path d="M126.437 140H73.5078C73.4085 140 73.3101 139.988 73.2137 139.964C73.1172 139.941 73.0246 139.906 72.9368 139.861C72.8491 139.815 72.7671 139.76 72.6928 139.694C72.6176 139.629 72.552 139.555 72.4941 139.474C72.4372 139.393 72.39 139.307 72.3543 139.214C72.3176 139.121 72.2926 139.026 72.2791 138.927C72.2655 138.829 72.2646 138.73 72.2742 138.631C72.2848 138.532 72.307 138.437 72.3398 138.343L75.9394 128.247C75.9818 128.127 76.0416 128.016 76.1197 127.914C76.1969 127.812 76.2875 127.724 76.3917 127.65C76.4968 127.577 76.6097 127.52 76.7322 127.482C76.8537 127.443 76.9781 127.424 77.1064 127.424H122.838C122.967 127.424 123.091 127.443 123.213 127.482C123.335 127.52 123.448 127.577 123.552 127.65C123.657 127.724 123.748 127.812 123.825 127.914C123.902 128.016 123.963 128.127 124.006 128.247L127.605 138.343C127.638 138.437 127.66 138.532 127.67 138.631C127.68 138.73 127.678 138.829 127.666 138.927C127.652 139.026 127.627 139.121 127.591 139.214C127.554 139.307 127.508 139.393 127.451 139.474C127.393 139.555 127.327 139.629 127.252 139.694C127.178 139.76 127.096 139.815 127.008 139.861C126.919 139.906 126.828 139.941 126.731 139.964C126.635 139.988 126.536 140 126.437 140ZM75.2623 137.519H124.682L121.971 129.905H77.9802L75.2623 137.519Z" fill="black"/>
<path d="M119.418 129.905C119.337 129.905 119.256 129.897 119.177 129.88C119.097 129.865 119.02 129.842 118.945 129.81C118.87 129.779 118.798 129.741 118.73 129.695C118.662 129.651 118.599 129.599 118.543 129.542C118.485 129.484 118.434 129.421 118.388 129.354C118.343 129.285 118.304 129.214 118.273 129.139C118.243 129.063 118.219 128.986 118.203 128.906C118.188 128.826 118.179 128.746 118.179 128.664V121.746H81.7688V128.664C81.7688 128.746 81.7611 128.826 81.7457 128.906C81.7293 128.986 81.7061 129.063 81.6753 129.139C81.6434 129.214 81.6058 129.285 81.5605 129.354C81.5152 129.421 81.464 129.484 81.4062 129.542C81.3483 129.599 81.2866 129.651 81.2181 129.695C81.1506 129.741 81.0792 129.779 81.004 129.81C80.9287 129.842 80.8516 129.865 80.7715 129.88C80.6915 129.897 80.6114 129.905 80.5304 129.905C80.4484 129.905 80.3684 129.897 80.2883 129.88C80.2083 129.865 80.1311 129.842 80.0559 129.81C79.9806 129.779 79.9093 129.741 79.8417 129.695C79.7733 129.651 79.7115 129.599 79.6537 129.542C79.5958 129.484 79.5447 129.421 79.4993 129.354C79.454 129.285 79.4164 129.214 79.3846 129.139C79.3537 129.063 79.3306 128.986 79.3142 128.906C79.2987 128.826 79.291 128.746 79.291 128.664V120.505C79.291 120.424 79.2987 120.343 79.3142 120.263C79.3306 120.183 79.3537 120.106 79.3846 120.031C79.4164 119.956 79.454 119.884 79.4993 119.817C79.5447 119.748 79.5958 119.686 79.6537 119.629C79.7115 119.571 79.7733 119.52 79.8417 119.474C79.9093 119.429 79.9806 119.39 80.0559 119.36C80.1311 119.329 80.2083 119.305 80.2883 119.289C80.3684 119.273 80.4484 119.265 80.5304 119.265H119.422C119.504 119.265 119.584 119.273 119.664 119.289C119.744 119.305 119.821 119.329 119.897 119.36C119.972 119.39 120.043 119.429 120.111 119.474C120.178 119.52 120.241 119.571 120.299 119.629C120.357 119.686 120.408 119.748 120.453 119.817C120.499 119.884 120.536 119.956 120.567 120.031C120.599 120.106 120.622 120.183 120.638 120.263C120.654 120.343 120.662 120.424 120.662 120.505V128.664C120.662 128.746 120.654 128.827 120.638 128.907C120.622 128.987 120.599 129.064 120.567 129.14C120.536 129.215 120.498 129.287 120.452 129.355C120.407 129.422 120.355 129.485 120.298 129.543C120.24 129.601 120.177 129.652 120.109 129.697C120.041 129.742 119.969 129.78 119.894 129.811C119.819 129.843 119.741 129.866 119.661 129.881C119.581 129.897 119.5 129.905 119.418 129.905Z" fill="black"/>
<path d="M114.204 121.746C114.122 121.746 114.042 121.738 113.962 121.722C113.882 121.706 113.805 121.682 113.73 121.651C113.655 121.62 113.583 121.582 113.516 121.536C113.448 121.491 113.386 121.44 113.328 121.382C113.271 121.325 113.219 121.263 113.173 121.194C113.129 121.127 113.09 121.055 113.06 120.98C113.028 120.905 113.005 120.828 112.989 120.747C112.973 120.667 112.965 120.586 112.965 120.505V113.689H86.9793V120.505C86.9793 120.586 86.9716 120.667 86.9552 120.747C86.9397 120.828 86.9166 120.905 86.8847 120.98C86.8539 121.055 86.8153 121.127 86.7709 121.194C86.7256 121.263 86.6735 121.325 86.6166 121.382C86.5587 121.44 86.4961 121.491 86.4285 121.536C86.361 121.582 86.2896 121.62 86.2144 121.651C86.1392 121.682 86.062 121.706 85.982 121.722C85.9019 121.738 85.8219 121.746 85.7399 121.746C85.6589 121.746 85.5778 121.738 85.4988 121.722C85.4187 121.706 85.3406 121.682 85.2653 121.651C85.1911 121.62 85.1187 121.582 85.0512 121.536C84.9837 121.491 84.921 121.44 84.8641 121.382C84.8062 121.325 84.7551 121.263 84.7098 121.194C84.6645 121.127 84.6259 121.055 84.595 120.98C84.5641 120.905 84.54 120.828 84.5246 120.747C84.5082 120.667 84.5005 120.586 84.5005 120.505V112.449C84.5005 112.368 84.5082 112.287 84.5246 112.207C84.54 112.127 84.5641 112.05 84.595 111.974C84.6259 111.899 84.6645 111.828 84.7098 111.76C84.7551 111.692 84.8062 111.629 84.8641 111.572C84.921 111.514 84.9837 111.463 85.0512 111.418C85.1187 111.372 85.1911 111.334 85.2653 111.303C85.3406 111.272 85.4187 111.248 85.4988 111.233C85.5778 111.216 85.6589 111.209 85.7399 111.209H114.204C114.285 111.209 114.366 111.216 114.446 111.233C114.526 111.248 114.604 111.272 114.679 111.303C114.754 111.334 114.826 111.372 114.893 111.418C114.961 111.463 115.023 111.514 115.08 111.572C115.138 111.629 115.189 111.692 115.234 111.76C115.28 111.828 115.318 111.899 115.349 111.974C115.38 112.05 115.404 112.127 115.42 112.207C115.436 112.287 115.444 112.368 115.444 112.449V120.505C115.444 120.586 115.436 120.667 115.42 120.747C115.404 120.828 115.38 120.905 115.349 120.98C115.318 121.055 115.28 121.127 115.234 121.194C115.189 121.263 115.138 121.325 115.08 121.382C115.023 121.44 114.961 121.491 114.893 121.536C114.826 121.582 114.754 121.62 114.679 121.651C114.604 121.682 114.526 121.706 114.446 121.722C114.366 121.738 114.285 121.746 114.204 121.746Z" fill="black"/>
<path d="M92.746 113.689C92.6929 113.689 92.6399 113.685 92.5868 113.679C92.5348 113.672 92.4827 113.662 92.4306 113.648C92.3795 113.634 92.3293 113.618 92.2801 113.598C92.23 113.577 92.1827 113.554 92.1364 113.528C92.0901 113.502 92.0458 113.473 92.0033 113.44C91.9599 113.409 91.9204 113.374 91.8818 113.337C91.8442 113.3 91.8085 113.26 91.7747 113.219C91.7419 113.177 91.712 113.133 91.6841 113.087C91.6571 113.042 91.6329 112.995 91.6117 112.946C91.5895 112.897 91.5722 112.847 91.5568 112.796C91.5423 112.745 91.5307 112.693 91.522 112.64C91.5143 112.588 91.5095 112.535 91.5076 112.482C91.5066 112.428 91.5085 112.375 91.5143 112.322C91.5191 112.268 91.5278 112.216 91.5404 112.164C91.5529 112.113 91.5683 112.062 91.5867 112.012C91.6059 111.962 91.6272 111.914 91.6522 111.866C94.4503 106.595 95.4138 101.724 94.4406 97.7729C94.4213 97.6938 94.4098 97.6138 94.4059 97.5318C94.402 97.4508 94.4069 97.3698 94.4194 97.2897C94.431 97.2087 94.4512 97.1306 94.4792 97.0534C94.5062 96.9772 94.5409 96.9039 94.5834 96.8345C94.6258 96.7641 94.674 96.6994 94.729 96.6396C94.784 96.5789 94.8438 96.5249 94.9094 96.4766C94.975 96.4284 95.0444 96.3869 95.1187 96.3522C95.192 96.3175 95.2682 96.2905 95.3473 96.2712C95.4263 96.2519 95.5064 96.2403 95.5874 96.2365C95.6694 96.2326 95.7504 96.2374 95.8305 96.249C95.9105 96.2616 95.9896 96.2818 96.0658 96.3088C96.142 96.3368 96.2153 96.3715 96.2848 96.4139C96.3552 96.4564 96.4198 96.5046 96.4796 96.5596C96.5404 96.6146 96.5944 96.6744 96.6426 96.7399C96.6908 96.8055 96.7323 96.875 96.767 96.9492C96.8008 97.0225 96.8278 97.0997 96.848 97.1778C97.3563 99.2399 97.4306 101.491 97.0679 103.869C96.6291 106.745 95.544 109.827 93.8436 113.031C93.7905 113.131 93.7259 113.221 93.6478 113.303C93.5706 113.385 93.4829 113.455 93.3864 113.513C93.29 113.571 93.1868 113.615 93.0787 113.645C92.9698 113.675 92.8588 113.689 92.746 113.689Z" fill="black"/>
<path d="M107.199 113.689C106.97 113.689 106.756 113.63 106.56 113.512C106.363 113.394 106.211 113.234 106.103 113.031C104.403 109.827 103.315 106.745 102.879 103.869C102.517 101.491 102.591 99.2399 103.1 97.1778C103.119 97.0997 103.146 97.0225 103.181 96.9492C103.215 96.875 103.256 96.8055 103.304 96.7399C103.353 96.6744 103.408 96.6146 103.467 96.5596C103.527 96.5046 103.593 96.4564 103.662 96.4139C103.732 96.3715 103.805 96.3368 103.881 96.3088C103.957 96.2818 104.036 96.2616 104.117 96.249C104.198 96.2374 104.279 96.2326 104.36 96.2365C104.441 96.2403 104.521 96.2519 104.6 96.2712C104.679 96.2905 104.755 96.3175 104.829 96.3522C104.903 96.3869 104.972 96.4284 105.038 96.4766C105.103 96.5249 105.164 96.5789 105.218 96.6396C105.273 96.6994 105.322 96.765 105.364 96.8345C105.406 96.9039 105.441 96.9772 105.469 97.0534C105.496 97.1306 105.516 97.2087 105.529 97.2897C105.54 97.3698 105.545 97.4508 105.541 97.5318C105.537 97.6138 105.526 97.6938 105.506 97.7729C104.531 101.726 105.495 106.597 108.295 111.866C108.32 111.914 108.342 111.962 108.36 112.012C108.379 112.062 108.394 112.113 108.407 112.164C108.419 112.216 108.428 112.268 108.434 112.322C108.438 112.375 108.44 112.428 108.439 112.482C108.437 112.535 108.433 112.588 108.425 112.64C108.416 112.693 108.405 112.745 108.39 112.796C108.376 112.847 108.357 112.897 108.336 112.946C108.315 112.995 108.29 113.042 108.263 113.087C108.235 113.133 108.205 113.177 108.172 113.219C108.139 113.26 108.104 113.3 108.065 113.337C108.028 113.374 107.987 113.409 107.945 113.44C107.902 113.473 107.858 113.502 107.811 113.528C107.764 113.554 107.717 113.577 107.668 113.598C107.619 113.618 107.568 113.634 107.516 113.648C107.465 113.662 107.413 113.672 107.36 113.679C107.307 113.685 107.254 113.689 107.201 113.689H107.199Z" fill="black"/>
<path d="M94.2447 86.5847C94.1473 86.5847 94.0499 86.5731 93.9554 86.55C93.8599 86.5268 93.7682 86.493 93.6814 86.4487C93.5937 86.4043 93.5136 86.3503 93.4384 86.2866C93.3641 86.222 93.2985 86.1506 93.2407 86.0716C93.1838 85.9925 93.1365 85.9066 93.0989 85.816C93.0613 85.7253 93.0352 85.6317 93.0198 85.5353C93.0053 85.4379 93.0015 85.3405 93.0092 85.243C93.0179 85.1456 93.0372 85.0501 93.068 84.9566L94.9903 79.0741L89.9797 75.4466C89.8736 75.3704 89.781 75.2787 89.7038 75.1726C89.6257 75.0665 89.5659 74.9508 89.5254 74.8264C89.4839 74.701 89.4637 74.5737 89.4637 74.4415C89.4627 74.3104 89.4829 74.1821 89.5235 74.0567C89.564 73.9323 89.6228 73.8165 89.7 73.7095C89.7771 73.6034 89.8687 73.5118 89.9748 73.4346C90.0809 73.3574 90.1967 73.2986 90.3221 73.2581C90.4475 73.2176 90.5757 73.1983 90.7069 73.1983L96.8913 73.2108L98.7914 67.3196C98.8309 67.1942 98.8898 67.0785 98.9669 66.9724C99.0431 66.8663 99.1348 66.7747 99.2409 66.6975C99.347 66.6194 99.4627 66.5606 99.5871 66.5201C99.7115 66.4795 99.8398 66.4593 99.971 66.4593C100.102 66.4593 100.229 66.4795 100.355 66.5201C100.479 66.5606 100.595 66.6194 100.7 66.6975C100.806 66.7747 100.898 66.8663 100.975 66.9724C101.052 67.0785 101.11 67.1942 101.151 67.3196L103.05 73.2108L109.235 73.1983C109.366 73.1983 109.495 73.2176 109.62 73.2581C109.744 73.2986 109.86 73.3574 109.966 73.4346C110.073 73.5118 110.165 73.6034 110.242 73.7095C110.319 73.8165 110.378 73.9323 110.419 74.0567C110.459 74.1821 110.478 74.3104 110.478 74.4415C110.478 74.5737 110.457 74.701 110.417 74.8264C110.375 74.9508 110.316 75.0665 110.238 75.1726C110.161 75.2787 110.068 75.3704 109.961 75.4466L104.951 79.075L106.877 84.9614C106.917 85.0858 106.939 85.2141 106.939 85.3453C106.939 85.4765 106.918 85.6038 106.878 85.7282C106.837 85.8536 106.779 85.9684 106.702 86.0745C106.625 86.1805 106.533 86.2722 106.427 86.3493C106.321 86.4265 106.207 86.4853 106.082 86.5258C105.957 86.5663 105.829 86.5866 105.698 86.5866C105.567 86.5866 105.44 86.5663 105.315 86.5258C105.191 86.4853 105.075 86.4265 104.969 86.3493L99.972 82.6987L94.9758 86.3455C94.7578 86.5046 94.5148 86.5847 94.2447 86.5847ZM99.972 79.9228C100.242 79.9228 100.485 80.0019 100.703 80.1611L103.327 82.0775L102.321 78.9873C102.28 78.8619 102.26 78.7346 102.259 78.6034C102.259 78.4722 102.279 78.3439 102.319 78.2185C102.359 78.0941 102.418 77.9784 102.495 77.8723C102.572 77.7662 102.663 77.6746 102.769 77.5964L105.403 75.6906L102.15 75.6973C102.019 75.6973 101.891 75.6761 101.766 75.6356C101.642 75.5951 101.527 75.5363 101.421 75.4591C101.315 75.3819 101.223 75.2903 101.147 75.1842C101.07 75.0772 101.011 74.9624 100.971 74.837L99.972 71.7419L98.9737 74.836C98.9332 74.9614 98.8753 75.0772 98.7981 75.1832C98.721 75.2903 98.6294 75.3819 98.5233 75.4591C98.4172 75.5363 98.3014 75.5951 98.177 75.6356C98.0516 75.6761 97.9243 75.6964 97.7922 75.6964L94.5389 75.6896L97.173 77.5964C97.279 77.6736 97.3716 77.7652 97.4488 77.8713C97.526 77.9774 97.5848 78.0932 97.6253 78.2176C97.6658 78.343 97.6861 78.4712 97.6861 78.6024C97.6861 78.7336 97.6658 78.8619 97.6243 78.9873L96.6174 82.0775L99.2428 80.1611C99.4598 80.0019 99.7029 79.9228 99.972 79.9228Z" fill="black"/>
</svg>
